<?xml version="1.0" encoding="UTF-8"?>
<svg id="Capa_2" data-name="Capa 2" xmlns="http://www.w3.org/2000/svg" viewBox="0 0 7626.03 643.4">
  <defs>
    <style>
      .cls-1 {
        fill: #000;
        stroke-width: 0px;
      }

      .cls-2 {
        isolation: isolate;
      }
    </style>
  </defs>
  <g id="Capa_1-2" data-name="Capa 1">
    <g class="cls-2">
      <path class="cls-1" d="M852,126.81l113.58,336.71,112.24-336.71h60.02l-144.27,395.39h-56.79l-144-395.39h59.21Z"/>
      <path class="cls-1" d="M1194.9,126.81h183.02c30.15,0,55,4.4,74.56,13.19,37.14,16.87,55.71,48,55.71,93.4,0,23.69-4.89,43.06-14.67,58.14-9.78,15.07-23.46,27.18-41.05,36.34,15.43,6.28,27.05,14.53,34.86,24.76,7.81,10.23,12.15,26.83,13.05,49.79l1.88,53.02c.54,15.07,1.79,26.29,3.77,33.64,3.23,12.56,8.97,20.64,17.23,24.22v8.88h-65.67c-1.79-3.41-3.23-7.81-4.31-13.19-1.08-5.38-1.98-15.79-2.69-31.22l-3.23-65.94c-1.26-25.84-10.86-43.15-28.8-51.95-10.23-4.84-26.29-7.27-48.18-7.27h-121.93v169.57h-53.56V126.81ZM1372.28,307.95c25.12,0,44.99-5.02,59.62-15.07,14.62-10.05,21.94-28.17,21.94-54.37,0-28.17-10.23-47.37-30.68-57.6-10.95-5.38-25.57-8.07-43.87-8.07h-130.81v135.11h123.81Z"/>
      <path class="cls-1" d="M1744.78,126.81h288.26v48.45h-236.05v120.04h218.28v45.76h-218.28v134.04h240.08v47.1h-292.3V126.81Z"/>
      <path class="cls-1" d="M2141.24,522.2h-64.6l141.57-202.67-132.69-192.71h67.02l100.93,151.26,100.12-151.26h63.79l-132.69,192.71,139.15,202.67h-66.48l-106.58-162.57-109.55,162.57Z"/>
      <path class="cls-1" d="M2480.11,126.81h288.26v48.45h-236.05v120.04h218.28v45.76h-218.28v134.04h240.08v47.1h-292.3V126.81Z"/>
      <path class="cls-1" d="M3125.8,155.61c27.63,26.38,42.97,56.34,46.03,89.9h-52.22c-5.92-25.48-17.72-45.67-35.39-60.56-17.67-14.89-42.48-22.34-74.42-22.34-38.94,0-70.38,13.68-94.34,41.04-23.95,27.37-35.93,69.31-35.93,125.83,0,46.29,10.81,83.84,32.43,112.64,21.62,28.81,53.87,43.2,96.76,43.2,39.47,0,69.53-15.16,90.17-45.49,10.94-15.97,19.11-36.96,24.49-62.98h52.22c-4.67,41.63-20.1,76.53-46.29,104.7-31.4,33.91-73.75,50.87-127.04,50.87-45.94,0-84.51-13.91-115.74-41.72-41.09-36.78-61.64-93.58-61.64-170.37,0-58.32,15.43-106.14,46.29-143.46,33.37-40.55,79.4-60.83,138.08-60.83,50.06,0,88.91,13.19,116.54,39.57Z"/>
      <path class="cls-1" d="M3298.87,126.81v244.39c0,28.71,5.38,52.57,16.15,71.59,15.97,28.71,42.88,43.06,80.75,43.06,45.39,0,76.26-15.52,92.59-46.56,8.79-16.87,13.19-39.57,13.19-68.1V126.81h54.37v222.05c0,48.63-6.55,86.04-19.65,112.24-24.05,47.73-69.44,71.59-136.19,71.59s-112.06-23.86-135.92-71.59c-13.1-26.2-19.65-63.61-19.65-112.24V126.81h54.37Z"/>
      <path class="cls-1" d="M3926.53,126.81v47.1h-133.23v348.28h-54.37V173.91h-133.23v-47.1h320.83Z"/>
      <path class="cls-1" d="M3987.63,126.81h54.1v395.39h-54.1V126.81Z"/>
      <path class="cls-1" d="M4159.89,126.81l113.58,336.71,112.24-336.71h60.02l-144.27,395.39h-56.79l-144-395.39h59.21Z"/>
      <path class="cls-1" d="M4501.44,126.81h288.26v48.45h-236.05v120.04h218.28v45.76h-218.28v134.04h240.08v47.1h-292.3V126.81Z"/>
      <path class="cls-1" d="M5015.79,126.81h76.71l113.58,334.29,112.77-334.29h75.9v395.39h-50.87v-233.36c0-8.07.18-21.44.54-40.1.36-18.66.54-38.67.54-60.02l-112.77,333.48h-53.02l-113.58-333.48v12.11c0,9.69.22,24.45.67,44.27.45,19.83.67,34.41.67,43.74v233.36h-51.14V126.81Z"/>
      <path class="cls-1" d="M5591.24,126.81h60.56l143.46,395.39h-58.68l-40.1-118.43h-156.38l-42.8,118.43h-54.91l148.84-395.39ZM5679.25,360.17l-60.02-174.68-63.79,174.68h123.81Z"/>
      <path class="cls-1" d="M5878.97,394.62c1.25,22.43,6.55,40.64,15.88,54.64,17.76,26.2,49.08,39.3,93.93,39.3,20.09,0,38.4-2.87,54.91-8.61,31.94-11.12,47.91-31.04,47.91-59.75,0-21.53-6.73-36.87-20.19-46.03-13.64-8.97-34.99-16.78-64.06-23.42l-53.56-12.11c-34.99-7.9-59.75-16.6-74.29-26.11-25.12-16.51-37.68-41.18-37.68-74.02,0-35.53,12.29-64.69,36.87-87.47,24.58-22.79,59.39-34.18,104.43-34.18,41.45,0,76.66,10.01,105.64,30.01,28.98,20.01,43.47,51.99,43.47,95.95h-50.33c-2.69-21.17-8.44-37.41-17.23-48.72-16.33-20.64-44.05-30.95-83.17-30.95-31.58,0-54.28,6.64-68.1,19.92-13.82,13.28-20.72,28.71-20.72,46.29,0,19.38,8.07,33.55,24.22,42.53,10.59,5.74,34.54,12.92,71.86,21.53l55.45,12.65c26.74,6.1,47.37,14.44,61.91,25.03,25.12,18.48,37.68,45.31,37.68,80.48,0,43.78-15.92,75.09-47.77,93.93-31.85,18.84-68.86,28.26-111.03,28.26-49.17,0-87.65-12.56-115.47-37.68-27.82-24.94-41.45-58.76-40.91-101.47h50.33Z"/>
      <path class="cls-1" d="M6499.36,126.81v47.1h-133.23v348.28h-54.37V173.91h-133.23v-47.1h320.83Z"/>
      <path class="cls-1" d="M6553.46,126.81h288.26v48.45h-236.05v120.04h218.28v45.76h-218.28v134.04h240.08v47.1h-292.3V126.81Z"/>
      <path class="cls-1" d="M6922.47,126.81h183.02c30.15,0,55,4.4,74.56,13.19,37.14,16.87,55.71,48,55.71,93.4,0,23.69-4.89,43.06-14.67,58.14-9.79,15.07-23.46,27.18-41.05,36.34,15.43,6.28,27.05,14.53,34.85,24.76,7.81,10.23,12.16,26.83,13.06,49.79l1.88,53.02c.54,15.07,1.79,26.29,3.77,33.64,3.23,12.56,8.97,20.64,17.23,24.22v8.88h-65.67c-1.79-3.41-3.23-7.81-4.31-13.19s-1.97-15.79-2.69-31.22l-3.23-65.94c-1.26-25.84-10.86-43.15-28.8-51.95-10.23-4.84-26.29-7.27-48.18-7.27h-121.93v169.57h-53.56V126.81ZM7099.84,307.95c25.12,0,44.99-5.02,59.61-15.07,14.62-10.05,21.94-28.17,21.94-54.37,0-28.17-10.23-47.37-30.68-57.6-10.95-5.38-25.57-8.07-43.87-8.07h-130.81v135.11h123.81Z"/>
      <path class="cls-1" d="M7273.71,126.81h62.44l113.58,190.02,113.58-190.02h62.71l-149.38,236.05v159.34h-53.56v-159.34l-149.38-236.05Z"/>
    </g>
    <g>
      <path class="cls-1" d="M387.4,255.33c-31.85-31.85-80.85-35.52-116.98-11.64l-70.43-70.43-25.72,25.72,70.43,70.43c-23.89,36.14-20.21,85.13,11.64,116.98,18.37,18.37,41.65,26.95,65.54,26.95s47.77-9.19,65.54-26.95c36.14-35.52,36.14-94.32,0-131.07ZM361.67,361.29c-22.05,22.05-57.57,22.05-79.62,0-22.05-22.05-22.05-57.57,0-79.62,11.02-11.02,25.11-16.54,39.81-16.54s28.79,5.51,39.81,16.54c21.44,22.05,21.44,57.57,0,79.62Z"/>
      <polygon class="cls-1" points="270.41 243.69 244.08 270.03 173.64 199.59 199.98 173.26 270.41 243.69"/>
      <path class="cls-1" d="M492.13,466.02l-10.41-10.41c31.85-37.36,49-84.52,49-134.74,0-55.73-22.05-108.41-61.25-148.22h0c-81.46-81.46-214.37-81.46-295.82,0-39.81,39.81-61.25,91.87-61.25,148.22s22.05,108.41,61.25,148.22c41.04,41.04,94.32,61.25,148.22,61.25,47.77,0,95.55-16.54,134.13-49l9.19,9.19,58.18,58.18,25.72-25.72-56.96-56.96ZM443.74,443.36c-67.37,67.37-177,67.37-243.76,0-32.46-32.46-50.22-75.95-50.22-121.88s17.76-89.42,50.22-121.88c33.69-33.69,77.79-50.22,121.88-50.22s88.2,17.15,121.88,50.22c32.46,32.46,50.22,75.95,50.22,121.88s-17.76,89.42-50.22,121.88Z"/>
      <polygon class="cls-1" points="549.7 522.98 523.37 549.31 465.18 490.52 492.13 466.02 549.7 522.98"/>
      <g>
        <path class="cls-1" d="M495.19,50.15C369.64-30.08,201.21-12.93,94.02,93.64,13.79,173.87-16.83,290.24,8.89,397.42c6.74,27.56,16.54,53.9,30.62,79.62,6.74,12.25,14.09,23.89,22.66,34.91.61.61,1.23,1.84,1.84,2.45l29.4-22.05c-1.84-2.45-3.06-4.29-4.9-6.74-6.12-8.57-11.64-17.76-16.54-26.34-16.54-29.4-26.95-60.63-31.85-93.1-14.09-88.2,14.09-180.68,79.62-246.83C213.45,25.65,361.06,9.73,471.92,78.32c-11.02,25.72-6.12,56.35,14.7,77.17,27.56,27.56,71.66,27.56,99.22,0s27.56-71.66,0-99.22c-24.5-23.89-63.08-26.34-90.64-6.12ZM560.11,130.38c-12.86,12.86-34.3,12.86-47.16,0s-12.86-34.3,0-47.16c12.86-12.86,34.3-12.86,47.16,0,12.86,12.86,12.86,33.69,0,47.16Z"/>
        <path class="cls-1" d="M495.19,50.15C369.64-30.08,201.21-12.93,94.02,93.64,13.79,173.87-16.83,290.24,8.89,397.42c6.74,27.56,16.54,53.9,30.62,79.62,6.74,12.25,14.09,23.89,22.66,34.91.61.61,1.23,1.84,1.84,2.45l29.4-22.05c-1.84-2.45-3.06-4.29-4.9-6.74-6.12-8.57-11.64-17.76-16.54-26.34-16.54-29.4-26.95-60.63-31.85-93.1-14.09-88.2,14.09-180.68,79.62-246.83C213.45,25.65,361.06,9.73,471.92,78.32c-11.02,25.72-6.12,56.35,14.7,77.17,20.82,20.82,52.06,25.72,77.17,14.7-4.29-7.35-9.19-14.09-14.09-20.82l29.4-22.05c4.9,6.12,9.19,12.86,13.48,19.6,20.21-27.56,17.76-66.15-7.35-90.65-23.89-23.89-62.47-26.34-90.03-6.13ZM560.11,130.38c-12.86,12.86-34.3,12.86-47.16,0s-12.86-34.3,0-47.16c12.86-12.86,34.3-12.86,47.16,0,12.86,12.86,12.86,33.69,0,47.16Z"/>
        <path class="cls-1" d="M40.13,366.18c4.9,31.85,15.31,63.7,31.85,93.1,4.9,9.19,10.41,17.76,16.54,26.34l-26.34,26.34c-8.57-11.02-15.92-23.27-22.66-34.91-14.09-25.11-24.5-52.06-30.62-79.62l31.23-31.24Z"/>
        <path class="cls-1" d="M550.31,149.98c7.96,10.41,15.31,22.05,21.44,33.69,18.37,33.07,29.4,68.6,33.07,104.12,9.8,84.52-18.99,172.1-81.46,235.19-94.93,94.93-240.09,110.86-352.17,41.04,11.02-25.72,6.12-56.35-14.7-77.17-27.56-27.56-71.66-27.56-99.22,0s-27.56,71.66,0,99.22c24.5,24.5,63.7,26.95,90.64,6.74,58.18,37.36,127.39,55.12,197.22,49.61,77.17-5.51,149.44-38.59,203.95-93.71,77.79-77.78,109.02-189.25,87.58-292.76-6.12-31.24-17.15-61.25-33.07-90.03-7.35-12.86-15.31-25.72-24.5-37.97l-28.78,22.05ZM130.77,559.73c-12.86,12.86-34.3,12.86-47.16,0s-12.86-34.3,0-47.16c12.86-12.86,34.3-12.86,47.16,0,12.86,12.86,12.86,34.3,0,47.16Z"/>
        <path class="cls-1" d="M593.19,148.15c3.68,6.12,7.35,11.64,11.02,17.76,15.92,28.79,26.95,58.8,33.07,90.03l-31.85,31.85c-4.29-36.14-15.31-71.66-33.07-104.12-2.45-4.29-4.9-8.57-7.35-12.86,7.96-3.67,15.31-8.57,22.05-14.7,1.84-2.45,3.68-5.51,6.13-7.96Z"/>
      </g>
    </g>
  </g>
</svg>